<?xml version="1.0" encoding="UTF-8" standalone="no"?>
<svg
        width="15"
        height="11"
        viewBox="0 0 15 11"
        fill="none"
        version="1.1"
        id="communities"
        sodipodi:docname="icon.svg"
        inkscape:version="1.4.2 (f4327f4, 2025-05-13)"
        xmlns:inkscape="http://www.inkscape.org/namespaces/inkscape"
        xmlns:sodipodi="http://sodipodi.sourceforge.net/DTD/sodipodi-0.dtd"
        xmlns="http://www.w3.org/2000/svg"
        xmlns:svg="http://www.w3.org/2000/svg">
    <defs
            id="defs1"/>
    <sodipodi:namedview
            id="namedview1"
            pagecolor="#ffffff"
            bordercolor="#000000"
            borderopacity="0.25"
            inkscape:showpageshadow="2"
            inkscape:pageopacity="0.0"
            inkscape:pagecheckerboard="0"
            inkscape:deskcolor="#d1d1d1"
            showguides="true"
            inkscape:zoom="67.909091"
            inkscape:cx="7.5026774"
            inkscape:cy="5.5"
            inkscape:window-width="1920"
            inkscape:window-height="986"
            inkscape:window-x="-11"
            inkscape:window-y="-11"
            inkscape:window-maximized="1"
            inkscape:current-layer="svg1">
        <sodipodi:guide
                position="3.6666667,7.2744311"
                orientation="1,0"
                id="guide4"
                inkscape:locked="false"/>
    </sodipodi:namedview>
    <path
            d="m 5.8125,7.4375 c 1.22917,-0.5 2.40625,-0.75 3.53125,-0.75 1.12505,0 2.29165,0.25 3.50005,0.75 1.2291,0.47917 1.8437,1.11458 1.8437,1.90625 V 10.6875 L 3.9705489,10.702226 4,9.34375 C 4.017159,8.552266 4.60417,7.91667 5.8125,7.4375 Z m 5.4063,-2.875 C 10.6979,5.08333 10.0729,5.34375 9.34375,5.34375 8.61458,5.34375 7.98958,5.08333 7.46875,4.5625 6.94792,4.04167 6.6875,3.41667 6.6875,2.6875 6.6875,1.95833 6.94792,1.33333 7.46875,0.8125 7.98958,0.270833 8.61458,0 9.34375,0 10.0729,0 10.6979,0.270833 11.2188,0.8125 11.7396,1.33333 12,1.95833 12,2.6875 c 0,0.72917 -0.2604,1.35417 -0.7812,1.875 z"
            fill="currentColor"
            id="path1"
            sodipodi:nodetypes="cscsccsccssscscsc"/>
</svg>
